<svg id="Calque_1" data-name="Calque 1" xmlns="http://www.w3.org/2000/svg" viewBox="0 0 722.77 262.67"><defs><style>.cls-1{fill:#e7464e;}.cls-2{fill:#671115;}</style></defs><path id="path4" class="cls-1" d="M405.66,240.27,370.9,300.91l-34.59-60.74L219.66,240l151,262.67L522.31,240.44Z" transform="translate(-219.66 -240.01)"/><path id="path6" class="cls-2" d="M405.66,240.27,370.9,300.91l-34.59-60.74-56-.07,90.41,157.76,90.86-157.51Z" transform="translate(-219.66 -240.01)"/><path class="cls-1" d="M555.86,331.51H522V318h83.71v13.54H571.93v91.24H555.86Z" transform="translate(-219.66 -240.01)"/><path class="cls-1" d="M589.43,415.83a8.47,8.47,0,1,1,16.93,0,8.47,8.47,0,1,1-16.93,0Z" transform="translate(-219.66 -240.01)"/><path class="cls-1" d="M624.81,318h18.5l13.56,42.77,4.7,16.3h.64l4.57-16.3L680.47,318H699V422.75H684.32V375.5c0-10.63,1.72-30.49,2.48-40.05h-.48l-6.46,22.42L666.61,395H656.53l-13-37.1-6.44-22.42h-.38c1,9.56,2.48,29.42,2.48,40.05v47.25H624.81Z" transform="translate(-219.66 -240.01)"/><path class="cls-1" d="M712.42,415.83a8.48,8.48,0,1,1,16.94,0,8.47,8.47,0,1,1-16.94,0Z" transform="translate(-219.66 -240.01)"/><path class="cls-1" d="M775.54,318h18.7l34.62,104.78H811.71l-16.89-57.06c-3.41-11.36-6.84-23.06-9.86-34.92h-.64c-3.15,11.86-6.39,23.56-9.8,34.92l-17.15,57.06H740.92Zm-15.18,61.94H809v12.83H760.36Z" transform="translate(-219.66 -240.01)"/><path class="cls-1" d="M840.42,415.83a8.48,8.48,0,1,1,16.94,0,8.47,8.47,0,1,1-16.94,0Z" transform="translate(-219.66 -240.01)"/><path class="cls-1" d="M871.35,318h17.17l30.58,62.28,9.78,22.06h.38c-.63-10.55-2.15-23.11-2.15-34.48V318h15.31V422.75H925.25l-30.58-62.3-9.78-22h-.38c.63,10.93,2.15,22.84,2.15,34.08v50.25H871.35Z" transform="translate(-219.66 -240.01)"/></svg>