<svg id="Calque_1" data-name="Calque 1" xmlns="http://www.w3.org/2000/svg" viewBox="0 0 779.63 197.42"><defs><style>.cls-1{fill:#e7464e;}</style></defs><path class="cls-1" d="M170.14,559.11H107.41V534H262.67v25.11H199.94V728.33h-29.8Z" transform="translate(-107.41 -534)"/><path class="cls-1" d="M232.39,715.48c0-9.7,7-16.3,15.71-16.3s15.7,6.6,15.7,16.3c0,9.46-7,15.94-15.7,15.94S232.39,724.94,232.39,715.48Z" transform="translate(-107.41 -534)"/><path class="cls-1" d="M298,534h34.31l25.14,79.32,8.72,30.23h1.19l8.48-30.23L401.24,534h34.31V728.33H408.38V640.69c0-19.71,3.18-56.54,4.59-74.27h-.89l-12,41.58-24.57,68.8H356.85L332.65,608l-11.94-41.58H320c1.9,17.73,4.6,54.56,4.6,74.27v87.64H298Z" transform="translate(-107.41 -534)"/><path class="cls-1" d="M460.5,715.48c0-9.7,7-16.3,15.7-16.3s15.7,6.6,15.7,16.3c0,9.46-7,15.94-15.7,15.94S460.5,724.94,460.5,715.48Z" transform="translate(-107.41 -534)"/><path class="cls-1" d="M577.55,534h34.69l64.19,194.33h-31.8L613.31,622.49c-6.33-21-12.69-42.75-18.29-64.75h-1.19c-5.84,22-11.85,43.7-18.18,64.75L543.86,728.33H513.35ZM549.4,648.88h90.15v23.78H549.4Z" transform="translate(-107.41 -534)"/><path class="cls-1" d="M697.87,715.48c0-9.7,7-16.3,15.71-16.3s15.7,6.6,15.7,16.3c0,9.46-7,15.94-15.7,15.94S697.87,724.94,697.87,715.48Z" transform="translate(-107.41 -534)"/><path class="cls-1" d="M755.23,534h31.84l56.72,115.5,18.14,40.91h.71c-1.17-19.57-4-42.86-4-63.94V534h28.4V728.33H855.2L798.48,612.77l-18.14-40.85h-.7c1.17,20.27,4,42.37,4,63.21v93.2H755.23Z" transform="translate(-107.41 -534)"/></svg>